<svg width="28" height="28" viewBox="0 0 28 28" fill="none" xmlns="http://www.w3.org/2000/svg">
<path fill-rule="evenodd" clip-rule="evenodd" d="M11.0833 0.875V3.79167L3.79167 3.79167V11.0833H0.875V3.79167V0.875H3.79167H11.0833ZM16.9167 0.875V3.79167L24.2083 3.79167V11.0833H27.125V3.79167V0.875H24.2083H16.9167ZM11.0833 24.2083V27.125H3.79167H0.875V24.2083V16.9167H3.79167V24.2083H11.0833ZM16.9167 27.125V24.2083H24.2083V16.9167H27.125V24.2083V27.125H24.2083H16.9167ZM16.9167 9.625C16.9167 11.2358 15.6108 12.5417 14 12.5417C12.3892 12.5417 11.0833 11.2358 11.0833 9.625C11.0833 8.01417 12.3892 6.70833 14 6.70833C15.6108 6.70833 16.9167 8.01417 16.9167 9.625ZM14 12.5417C18.1016 12.5417 21.2917 15.4583 21.2917 15.4583V18.375V21.2917H18.375H9.625H6.70833V18.375V15.4583C6.70833 15.4583 9.89844 12.5417 14 12.5417ZM18.375 16.9147V18.375H9.625V16.9147C9.80723 16.7969 10.0113 16.6728 10.2344 16.5486C11.2978 15.9568 12.6228 15.4583 14 15.4583C15.3772 15.4583 16.7022 15.9568 17.7656 16.5486C17.9887 16.6728 18.1928 16.7969 18.375 16.9147Z" fill="#5FC5AB"/>
</svg>
