<svg width="25" height="24" viewBox="0 0 25 24" fill="none" xmlns="http://www.w3.org/2000/svg">
<g clip-path="url(#clip0_2000_2649)">
<path fill-rule="evenodd" clip-rule="evenodd" d="M4.125 18H18.125V6H16.525H14.725H7.525H5.725H4.125V18ZM4.125 4H2.125V6V18V20H4.125H18.125H20.125V18V6V4H18.125H16.525H14.725H7.525H5.725H4.125ZM23.125 9.00002C22.5728 9.00002 22.1251 9.44771 22.1251 9.99997V14C22.1251 14.5522 22.5728 14.9999 23.125 14.9999C23.6773 14.9999 24.125 14.5523 24.125 14V10C24.125 9.44773 23.6773 9.00002 23.125 9.00002ZM8.125 12C9.22957 12 10.125 11.1046 10.125 10C10.125 8.89543 9.22957 8 8.125 8C7.02043 8 6.125 8.89543 6.125 10C6.125 11.1046 7.02043 12 8.125 12Z" fill="#9BA1AA"/>
</g>
<defs>
<clipPath id="clip0_2000_2649">
<rect width="24" height="24" fill="white" transform="translate(0.125)"/>
</clipPath>
</defs>
</svg>
