<svg width="35" height="32" viewBox="0 0 35 32" fill="none" xmlns="http://www.w3.org/2000/svg">
<path d="M35 20L22 20L22 17.6L29.5833 17.6L29.5833 14L35 20Z" fill="#333F48"/>
<path d="M20 22L33 22L33 24.4L25.4167 24.4L25.4167 28L20 22Z" fill="#333F48"/>
<path d="M15.5 20C14.4391 20 13.4217 19.5786 12.6716 18.8284C11.9214 18.0783 11.5 17.0609 11.5 16C11.5 14.9391 11.9214 13.9217 12.6716 13.1716C13.4217 12.4214 14.4391 12 15.5 12C16.5609 12 17.5783 12.4214 18.3284 13.1716C19.0786 13.9217 19.5 14.9391 19.5 16C19.5 17.0609 19.0786 18.0783 18.3284 18.8284C17.5783 19.5786 16.5609 20 15.5 20ZM15.5 18C16.0304 18 16.5391 17.7893 16.9142 17.4142C17.2893 17.0391 17.5 16.5304 17.5 16C17.5 15.4696 17.2893 14.9609 16.9142 14.5858C16.5391 14.2107 16.0304 14 15.5 14C14.9696 14 14.4609 14.2107 14.0858 14.5858C13.7107 14.9609 13.5 15.4696 13.5 16C13.5 16.5304 13.7107 17.0391 14.0858 17.4142C14.4609 17.7893 14.9696 18 15.5 18Z" fill="#333F48"/>
<path d="M15.5 5L25 10.5V13.5H23V11.653L15.5 7.311L8 11.653V20.347L15.5 24.689L16.9142 23.8703L17.7149 25.7177L15.5 27L6 21.5V10.5L15.5 5Z" fill="#333F48"/>
</svg>
