<svg width="16" height="16" viewBox="0 0 16 16" fill="none" xmlns="http://www.w3.org/2000/svg">
<rect x="0.5" y="0.5" width="15" height="15" rx="7.5" fill="#107F8C"/>
<rect x="0.5" y="0.5" width="15" height="15" rx="7.5" stroke="white"/>
<path d="M8.99951 6.72222C9.18336 6.72222 9.36541 6.68702 9.53527 6.61861C9.70512 6.55021 9.85946 6.44995 9.98946 6.32356C10.1195 6.19717 10.2226 6.04712 10.2929 5.88199C10.3633 5.71685 10.3995 5.53985 10.3995 5.36111C10.3995 5.18237 10.3633 5.00537 10.2929 4.84024C10.2226 4.6751 10.1195 4.52505 9.98946 4.39866C9.85946 4.27227 9.70512 4.17201 9.53527 4.10361C9.36541 4.03521 9.18336 4 8.99951 4C8.62821 4 8.27211 4.1434 8.00956 4.39866C7.74701 4.65392 7.59951 5.00012 7.59951 5.36111C7.59951 5.7221 7.74701 6.0683 8.00956 6.32356C8.27211 6.57882 8.62821 6.72222 8.99951 6.72222ZM5.99951 10.7667V11H11.9995V10.7667C11.9995 9.89556 11.9995 9.46 11.8251 9.12711C11.6717 8.83443 11.427 8.59647 11.1259 8.44733C10.7835 8.27778 10.3355 8.27778 9.43951 8.27778H8.55951C7.66351 8.27778 7.21551 8.27778 6.87311 8.44733C6.57207 8.59647 6.32731 8.83443 6.17391 9.12711C5.99951 9.46 5.99951 9.89556 5.99951 10.7667Z" stroke="white" stroke-linecap="round" stroke-linejoin="round"/>
<path d="M4 4.97266L5.2 6.13932L4 7.30599" stroke="white" stroke-linecap="round" stroke-linejoin="round"/>
</svg>
