<svg width="64" height="69" viewBox="0 0 64 69" fill="none" xmlns="http://www.w3.org/2000/svg">
<path d="M34.6667 49.713C36.2608 48.7953 37.3333 47.08 37.3333 45.1154C37.3333 42.184 34.9455 39.8077 32 39.8077C29.0545 39.8077 26.6667 42.184 26.6667 45.1154C26.6667 47.08 27.7392 48.7953 29.3333 49.713V55.7308C29.3333 57.1964 30.5272 58.3846 32 58.3846C33.4728 58.3846 34.6667 57.1964 34.6667 55.7308V49.713Z" fill="url(#paint0_linear_840_523)"/>
<path fill-rule="evenodd" clip-rule="evenodd" d="M21.3333 16.9438C21.3333 10.5174 26.5682 5.30769 33.0256 5.30769C38.3502 5.30769 42.6667 9.60337 42.6667 14.9024V15.9231C42.6667 17.3888 43.8606 18.5769 45.3333 18.5769C46.8061 18.5769 48 17.3888 48 15.9231V14.9024C48 6.67202 41.2958 0 33.0256 0C23.6226 0 16 7.58599 16 16.9438V26.5385H10.6667C4.77563 26.5385 0 31.2911 0 37.1538V58.3846C0 64.2473 4.77563 69 10.6667 69H53.3333C59.2244 69 64 64.2473 64 58.3846V37.1538C64 31.2911 59.2244 26.5385 53.3333 26.5385H21.3333V16.9438ZM5.33333 37.1538C5.33333 34.2225 7.72115 31.8462 10.6667 31.8462H53.3333C56.2789 31.8462 58.6667 34.2225 58.6667 37.1538V58.3846C58.6667 61.316 56.2789 63.6923 53.3333 63.6923H10.6667C7.72115 63.6923 5.33333 61.316 5.33333 58.3846V37.1538Z" fill="url(#paint1_linear_840_523)"/>
<defs>
<linearGradient id="paint0_linear_840_523" x1="-9.07554e-08" y1="-4.23684" x2="74.1247" y2="6.41547" gradientUnits="userSpaceOnUse">
<stop stop-color="#53E88B"/>
<stop offset="1" stop-color="#15BE77"/>
</linearGradient>
<linearGradient id="paint1_linear_840_523" x1="-9.07554e-08" y1="-4.23684" x2="74.1247" y2="6.41547" gradientUnits="userSpaceOnUse">
<stop stop-color="#53E88B"/>
<stop offset="1" stop-color="#15BE77"/>
</linearGradient>
</defs>
</svg>
