<svg width="49" height="48" viewBox="0 0 49 48" fill="none" xmlns="http://www.w3.org/2000/svg">
<g clip-path="url(#clip0_2493_1807)">
<g filter="url(#filter0_d_2493_1807)">
<path d="M40.9284 0H8.64272C4.18499 0 0.571289 3.58172 0.571289 8V40C0.571289 44.4183 4.18499 48 8.64272 48H40.9284C45.3862 48 48.9999 44.4183 48.9999 40V8C48.9999 3.58172 45.3862 0 40.9284 0Z" fill="white"/>
<path fill-rule="evenodd" clip-rule="evenodd" d="M27.8124 20H17.7231V32H27.8124V20ZM29.8302 18V28H31.8481V16H21.7588V18H29.8302ZM19.7409 18H15.7052V34H29.8302V30H33.8659V14H19.7409V18Z" fill="#333F48"/>
</g>
</g>
<defs>
<filter id="filter0_d_2493_1807" x="-49.4287" y="-50" width="148.429" height="148" filterUnits="userSpaceOnUse" color-interpolation-filters="sRGB">
<feFlood flood-opacity="0" result="BackgroundImageFix"/>
<feColorMatrix in="SourceAlpha" type="matrix" values="0 0 0 0 0 0 0 0 0 0 0 0 0 0 0 0 0 0 127 0" result="hardAlpha"/>
<feOffset/>
<feGaussianBlur stdDeviation="25"/>
<feComposite in2="hardAlpha" operator="out"/>
<feColorMatrix type="matrix" values="0 0 0 0 0.352941 0 0 0 0 0.423529 0 0 0 0 0.917647 0 0 0 0.07 0"/>
<feBlend mode="normal" in2="BackgroundImageFix" result="effect1_dropShadow_2493_1807"/>
<feBlend mode="normal" in="SourceGraphic" in2="effect1_dropShadow_2493_1807" result="shape"/>
</filter>
<clipPath id="clip0_2493_1807">
<rect width="48.4286" height="48" fill="white" transform="translate(0.571289)"/>
</clipPath>
</defs>
</svg>
