<svg width="195" height="158" viewBox="0 0 195 158" fill="none" xmlns="http://www.w3.org/2000/svg">
<path d="M174.522 89C174.522 126.003 144.525 156 107.522 156C70.5189 156 40.5219 126.003 40.5219 89C40.5219 51.9969 70.5189 22 107.522 22C144.525 22 174.522 51.9969 174.522 89Z" fill="#32D74B"/>
<path d="M194.478 35C194.478 38.5898 191.568 41.5 187.978 41.5C184.388 41.5 181.478 38.5898 181.478 35C181.478 31.4101 184.388 28.5 187.978 28.5C191.568 28.5 194.478 31.4101 194.478 35Z" fill="#32D74B"/>
<path d="M21.522 10C21.522 15.5228 16.821 20 11.022 20C5.22298 20 0.521973 15.5228 0.521973 10C0.521973 4.47715 5.22298 0 11.022 0C16.821 0 21.522 4.47715 21.522 10Z" fill="#32D74B"/>
<path d="M28.0671 135.5C28.0671 138.538 25.8285 141 23.0671 141C20.3057 141 18.0671 138.538 18.0671 135.5C18.0671 132.462 20.3057 130 23.0671 130C25.8285 130 28.0671 132.462 28.0671 135.5Z" fill="#32D74B"/>
<path d="M178.522 156C178.522 157.105 177.403 158 176.022 158C174.641 158 173.522 157.105 173.522 156C173.522 154.895 174.641 154 176.022 154C177.403 154 178.522 154.895 178.522 156Z" fill="#32D74B"/>
<path d="M102.545 107.118C101.124 107.118 99.7028 106.509 98.8909 105.291L87.5239 90.6763C85.9 88.6465 86.3061 85.8048 88.3359 84.1809C90.3657 82.557 93.2074 82.963 94.8313 84.9928L102.545 94.939L119.595 72.8139C121.219 70.7841 124.061 70.3781 126.091 72.002C128.12 73.6258 128.526 76.4676 126.902 78.4974L106.198 105.291C105.183 106.306 103.965 107.118 102.545 107.118Z" fill="white"/>
</svg>
