<svg width="55" height="83" viewBox="0 0 55 83" fill="none" xmlns="http://www.w3.org/2000/svg">
<path d="M27.5 0C12.3208 0 0 12.3208 0 27.5V55.0986C0 70.2778 12.3208 82.5985 27.5 82.5985C42.6792 82.5985 55 70.2778 55 55.0986V27.5C55 12.3208 42.7285 0 27.5 0Z" fill="#1F84CE"/>
<path d="M31.2953 44.3542L42.4333 32.822C43.4189 31.787 43.4189 30.1607 42.4333 29.1257L29.5211 15.7207C28.7818 14.9322 27.599 14.6858 26.6134 15.08C25.5784 15.4743 24.9377 16.46 24.9377 17.5442V37.701L16.5596 28.9779C15.5247 27.8937 13.849 27.8937 12.7648 28.9286C11.6806 29.9636 11.6806 31.6392 12.7155 32.7234L23.9028 44.3542L12.7155 55.9851C11.6806 57.0693 11.7298 58.7449 12.7648 59.7799C13.3069 60.2727 13.9476 60.5191 14.6376 60.5191C15.3275 60.5191 16.0175 60.2234 16.5596 59.6813L24.9377 50.9582V71.115C24.9377 72.1992 25.5784 73.1849 26.6134 73.5791C26.9583 73.727 27.254 73.7763 27.599 73.7763C28.289 73.7763 29.0282 73.4806 29.5211 72.9385L42.4333 59.5334C43.4189 58.4985 43.4189 56.8722 42.4333 55.8372L31.2953 44.3542ZM30.2603 24.1974L36.7657 30.9492L30.2603 37.701V24.1974ZM30.2603 64.511V51.0075L36.7657 57.7593L30.2603 64.511Z" fill="#145587"/>
<path d="M31.2953 41.2988L42.4333 29.7666C43.4189 28.7316 43.4189 27.1053 42.4333 26.0703L29.5211 12.6653C28.7818 11.8768 27.599 11.6304 26.6134 12.0246C25.5784 12.4189 24.9377 13.4046 24.9377 14.4888V34.6456L16.5596 25.9225C15.5247 24.8383 13.849 24.8383 12.7648 25.8732C11.6806 26.9082 11.6806 28.5838 12.7155 29.668L23.9028 41.2988L12.7155 52.9297C11.6806 54.0139 11.7298 55.6895 12.7648 56.7245C13.3069 57.2173 13.9476 57.4637 14.6376 57.4637C15.3275 57.4637 16.0175 57.168 16.5596 56.6259L24.9377 47.9028V68.0596C24.9377 69.1438 25.5784 70.1295 26.6134 70.5237C26.9583 70.6716 27.254 70.7209 27.599 70.7209C28.289 70.7209 29.0282 70.4252 29.5211 69.8831L42.4333 56.478C43.4189 55.4431 43.4189 53.8167 42.4333 52.7818L31.2953 41.2988ZM30.2603 21.142L36.7657 27.8938L30.2603 34.6456V21.142ZM30.2603 61.4556V47.9521L36.7657 54.7039L30.2603 61.4556Z" fill="white"/>
</svg>
