<svg width="16" height="16" viewBox="0 0 16 16" fill="none" xmlns="http://www.w3.org/2000/svg">
<rect x="0.5" y="0.5" width="15" height="15" rx="7.5" fill="#7D85C1"/>
<rect x="0.5" y="0.5" width="15" height="15" rx="7.5" stroke="white"/>
<path d="M10.8 4.97222L12 6.13889L10.8 7.30556M7 6.72222C7.18385 6.72222 7.3659 6.68702 7.53576 6.61861C7.70561 6.55021 7.85995 6.44995 7.98995 6.32356C8.11995 6.19717 8.22307 6.04712 8.29343 5.88199C8.36379 5.71685 8.4 5.53985 8.4 5.36111C8.4 5.18237 8.36379 5.00537 8.29343 4.84024C8.22307 4.6751 8.11995 4.52505 7.98995 4.39866C7.85995 4.27227 7.70561 4.17201 7.53576 4.10361C7.3659 4.03521 7.18385 4 7 4C6.6287 4 6.2726 4.1434 6.01005 4.39866C5.7475 4.65392 5.6 5.00012 5.6 5.36111C5.6 5.7221 5.7475 6.0683 6.01005 6.32356C6.2726 6.57882 6.6287 6.72222 7 6.72222ZM4 10.7667V11H10V10.7667C10 9.89556 10 9.46 9.8256 9.12711C9.6722 8.83443 9.42745 8.59647 9.1264 8.44733C8.784 8.27778 8.336 8.27778 7.44 8.27778H6.56C5.664 8.27778 5.216 8.27778 4.8736 8.44733C4.57255 8.59647 4.3278 8.83443 4.1744 9.12711C4 9.46 4 9.89556 4 10.7667Z" stroke="white" stroke-linecap="round" stroke-linejoin="round"/>
</svg>
