<svg width="32" height="42" viewBox="0 0 32 42" fill="none" xmlns="http://www.w3.org/2000/svg">
<path fill-rule="evenodd" clip-rule="evenodd" d="M29.7883 27.7262C32.0399 29.3134 32.0399 32.059 29.7883 33.6461L19.4243 40.9518C16.1103 43.2879 10.795 41.4647 10.795 37.9919L10.795 23.3805C10.795 19.9077 16.1103 18.0845 19.4243 20.4206L29.7883 27.7262ZM27.4748 31.6728C28.2253 31.1438 28.2253 30.2286 27.4748 29.6995L17.1107 22.3939C16.0061 21.6152 14.2343 22.2229 14.2343 23.3805L14.2343 37.9919C14.2343 39.1495 16.0061 39.7572 17.1107 38.9785L27.4748 31.6728Z" fill="url(#paint0_linear_787_702)"/>
<path fill-rule="evenodd" clip-rule="evenodd" d="M29.8113 8.35385C32.0629 9.94099 32.0629 12.6866 29.8113 14.2738L19.4473 21.5794C16.1333 23.9155 10.818 22.0923 10.818 18.6195L10.818 4.00813C10.818 0.53534 16.1333 -1.28787 19.4473 1.04818L29.8113 8.35385ZM27.4978 12.3005C28.2483 11.7714 28.2483 10.8562 27.4978 10.3272L17.1337 3.02149C16.0291 2.2428 14.2573 2.85054 14.2573 4.00813V18.6195C14.2573 19.7771 16.0291 20.3848 17.1337 19.6061L27.4978 12.3005Z" fill="url(#paint1_linear_787_702)"/>
<path d="M12.2241 21.7204C13.0638 21.157 13.0638 20.1823 12.2241 19.6189L0.629421 11.8388L0.5 9.73732H3.21768L14.8124 17.5175C17.3313 19.2077 17.3314 22.1316 14.8124 23.8218L3.21769 31.602C3.19842 31.602 3.17929 31.602 3.16031 31.602H0.629421L0.629429 29.523C0.629429 29.5155 0.629429 29.508 0.629429 29.5005L12.2241 21.7204Z" fill="url(#paint2_linear_787_702)"/>
<defs>
<linearGradient id="paint0_linear_787_702" x1="0.5" y1="-2.57895" x2="36.6726" y2="1.55764" gradientUnits="userSpaceOnUse">
<stop stop-color="#53E88B"/>
<stop offset="1" stop-color="#15BE77"/>
</linearGradient>
<linearGradient id="paint1_linear_787_702" x1="0.5" y1="-2.57895" x2="36.6726" y2="1.55764" gradientUnits="userSpaceOnUse">
<stop stop-color="#53E88B"/>
<stop offset="1" stop-color="#15BE77"/>
</linearGradient>
<linearGradient id="paint2_linear_787_702" x1="0.5" y1="-2.57895" x2="36.6726" y2="1.55764" gradientUnits="userSpaceOnUse">
<stop stop-color="#53E88B"/>
<stop offset="1" stop-color="#15BE77"/>
</linearGradient>
</defs>
</svg>
