<svg width="27" height="36" viewBox="0 0 27 36" fill="none" xmlns="http://www.w3.org/2000/svg">
<path fill-rule="evenodd" clip-rule="evenodd" d="M24.9903 23.6052C26.8666 24.9278 26.8666 27.2158 24.9903 28.5385L16.3536 34.6265C13.5919 36.5732 9.16252 35.0539 9.16252 32.1599L9.16252 19.9838C9.16252 17.0898 13.5919 15.5704 16.3536 17.5171L24.9903 23.6052ZM23.0623 26.894C23.6878 26.4532 23.6878 25.6905 23.0623 25.2496L14.4256 19.1616C13.5051 18.5127 12.0286 19.0191 12.0286 19.9838L12.0286 32.1599C12.0286 33.1246 13.5051 33.631 14.4256 32.9821L23.0623 26.894Z" fill="url(#paint0_linear_933_3324)"/>
<path fill-rule="evenodd" clip-rule="evenodd" d="M25.0095 7.46154C26.8858 8.78416 26.8858 11.0722 25.0095 12.3948L16.3728 18.4829C13.6111 20.4296 9.1817 18.9102 9.1817 16.0162L9.1817 3.84011C9.1817 0.946116 13.6111 -0.573228 16.3728 1.37348L25.0095 7.46154ZM23.0815 10.7504C23.7069 10.3095 23.7069 9.54684 23.0815 9.10596L14.4448 3.01791C13.5243 2.369 12.0478 2.87545 12.0478 3.84011V16.0162C12.0478 16.9809 13.5243 17.4874 14.4448 16.8384L23.0815 10.7504Z" fill="url(#paint1_linear_933_3324)"/>
<path d="M10.3535 18.6003C11.0532 18.1308 11.0532 17.3186 10.3535 16.8491L0.691225 10.3657L0.583374 8.61443H2.84811L12.5104 15.0979C14.6095 16.5064 14.6095 18.943 12.5104 20.3515L2.84811 26.835C2.83205 26.835 2.81612 26.835 2.8003 26.835H0.691225L0.691232 25.1025C0.691232 25.0963 0.691232 25.09 0.691232 25.0838L10.3535 18.6003Z" fill="url(#paint2_linear_933_3324)"/>
<defs>
<linearGradient id="paint0_linear_933_3324" x1="0.583374" y1="-1.64912" x2="30.7272" y2="1.79803" gradientUnits="userSpaceOnUse">
<stop stop-color="#53E88B"/>
<stop offset="1" stop-color="#15BE77"/>
</linearGradient>
<linearGradient id="paint1_linear_933_3324" x1="0.583374" y1="-1.64912" x2="30.7272" y2="1.79803" gradientUnits="userSpaceOnUse">
<stop stop-color="#53E88B"/>
<stop offset="1" stop-color="#15BE77"/>
</linearGradient>
<linearGradient id="paint2_linear_933_3324" x1="0.583374" y1="-1.64912" x2="30.7272" y2="1.79803" gradientUnits="userSpaceOnUse">
<stop stop-color="#53E88B"/>
<stop offset="1" stop-color="#15BE77"/>
</linearGradient>
</defs>
</svg>
