<svg width="50" height="34" viewBox="0 0 50 34" fill="none" xmlns="http://www.w3.org/2000/svg">
<path fill-rule="evenodd" clip-rule="evenodd" d="M3.60305 6.51874C4.40849 2.99566 7.5164 0.5 11.0984 0.5H26.443C29.5982 0.5 32.5527 2.06257 34.3487 4.6812L39.8066 12.6391L46.2654 16.5508C48.5823 17.9541 50 20.4815 50 23.209V25.7353C50 27.8795 48.278 29.6176 46.1538 29.6176H41.9794C41.1874 31.8795 39.0504 33.5 36.5385 33.5C34.0265 33.5 31.8895 31.8795 31.0975 29.6176H18.9025C18.1105 31.8795 15.9735 33.5 13.4615 33.5C10.9496 33.5 8.81258 31.8795 8.02059 29.6176H3.84615C1.72198 29.6176 0 27.8795 0 25.7353V20.8568C0 20.0222 0.133291 19.1931 0.394744 18.4014L1.99287 13.5619L3.60305 6.51874ZM8.02059 25.7353C8.81258 23.4734 10.9496 21.8529 13.4615 21.8529C15.9735 21.8529 18.1105 23.4734 18.9025 25.7353H31.0975C31.8895 23.4734 34.0265 21.8529 36.5385 21.8529C39.0504 21.8529 41.1874 23.4734 41.9794 25.7353H46.1538V23.209C46.1538 21.8453 45.445 20.5815 44.2865 19.8799L37.9289 16.0294H5.23223L4.04353 19.6291C3.9128 20.025 3.84615 20.4395 3.84615 20.8568V25.7353H8.02059ZM31.1864 6.89107L34.7912 12.1471H21.1538V4.38235H26.443C28.3361 4.38235 30.1088 5.31989 31.1864 6.89107ZM17.3077 4.38235H11.0984C9.30739 4.38235 7.75343 5.63018 7.35071 7.39173L6.26356 12.1471H17.3077V4.38235ZM36.5385 25.7353C35.4764 25.7353 34.6154 26.6044 34.6154 27.6765C34.6154 28.7486 35.4764 29.6176 36.5385 29.6176C37.6005 29.6176 38.4615 28.7486 38.4615 27.6765C38.4615 26.6044 37.6005 25.7353 36.5385 25.7353ZM11.5385 27.6765C11.5385 26.6044 12.3995 25.7353 13.4615 25.7353C14.5236 25.7353 15.3846 26.6044 15.3846 27.6765C15.3846 28.7486 14.5236 29.6176 13.4615 29.6176C12.3995 29.6176 11.5385 28.7486 11.5385 27.6765Z" fill="url(#paint0_linear_785_692)"/>
<defs>
<linearGradient id="paint0_linear_785_692" x1="-7.09026e-08" y1="-1.52631" x2="56.0188" y2="11.6241" gradientUnits="userSpaceOnUse">
<stop stop-color="#53E88B"/>
<stop offset="1" stop-color="#15BE77"/>
</linearGradient>
</defs>
</svg>
