<svg width="31" height="25" viewBox="0 0 31 25" fill="none" xmlns="http://www.w3.org/2000/svg">
<path d="M13.8675 8.7452L13.8675 8.74514C13.7899 8.36942 13.5977 8.02154 13.312 7.74663C13.0262 7.47154 12.6597 7.28217 12.2581 7.20527C11.8562 7.12836 11.44 7.16799 11.0627 7.31841L11.0627 7.31841C10.6855 7.46878 10.3661 7.7222 10.1429 8.04373C9.91996 8.36484 9.8022 8.74023 9.80208 9.12255C9.80268 9.63502 10.0143 10.1304 10.3971 10.4988L10.0504 10.8591L10.3971 10.4988C10.7806 10.8679 11.3044 11.0787 11.8547 11.0793L13.8675 8.7452ZM13.8675 8.7452C13.9452 9.12078 13.9056 9.5103 13.7527 9.86537L13.7527 9.86542M13.8675 8.7452L13.7527 9.86542M13.7527 9.86542C13.5998 10.2207 13.3395 10.5275 13.0016 10.7448C12.6637 10.9621 12.2645 11.0792 11.8547 11.0793L13.7527 9.86542ZM11.8536 7.39506L11.8542 7.39506C12.2013 7.39506 12.542 7.49404 12.8335 7.68148L12.8335 7.68148C13.1252 7.86903 13.3555 8.13758 13.4924 8.45547L13.4924 8.45559C13.6292 8.77367 13.6654 9.12483 13.5954 9.46383L13.5954 9.46396C13.5253 9.80286 13.3529 10.1114 13.1032 10.3518L13.1032 10.3518C12.8536 10.5919 12.538 10.7534 12.1971 10.8187L12.1971 10.8187C11.8563 10.8839 11.5029 10.8506 11.1807 10.7222L11.1807 10.7222C10.8585 10.5937 10.5799 10.375 10.3825 10.0906L11.8536 7.39506ZM11.8536 7.39506C11.389 7.39558 10.9398 7.57326 10.6056 7.89488L11.8536 7.39506ZM11.2039 9.52023L11.204 9.52032C11.2869 9.63983 11.407 9.73585 11.551 9.79327C11.6952 9.85075 11.8548 9.86605 12.0091 9.83653L11.2039 9.52023ZM11.2039 9.52023C11.1211 9.40105 11.0782 9.26307 11.0781 9.1236C11.0784 8.93677 11.1554 8.75362 11.299 8.61546L11.2991 8.61541M11.2039 9.52023L11.2991 8.61541M11.2991 8.61541C11.4432 8.47669 11.6426 8.39539 11.8543 8.39506M11.2991 8.61541L11.8543 8.39506M11.8543 8.39506C12.0119 8.3951 12.1645 8.44017 12.2926 8.52258M11.8543 8.39506L12.2926 8.52258M12.2926 8.52258C12.4206 8.6049 12.5174 8.71989 12.5738 8.85075M12.2926 8.52258L12.5738 8.85075M12.5738 8.85075C12.63 8.98144 12.6444 9.12408 12.6161 9.26148M12.5738 8.85075L12.6161 9.26148M12.6161 9.26148C12.5876 9.39902 12.5169 9.52809 12.4097 9.63125L12.6161 9.26148ZM3.33302 21.2347V21.7343L3.83268 21.7347L27.166 21.7507L27.6664 21.7511V21.2507V3.76675V3.2671L27.1667 3.26675L3.83337 3.25071L3.33302 3.25037V3.75071V21.2347ZM16.4251 15.7776L16.4583 15.8096V17.8337H7.25V15.8096L7.28326 15.7776C7.28327 15.7776 7.28327 15.7776 7.28328 15.7776C8.49332 14.6156 10.1369 13.9598 11.8542 13.9598C13.5715 13.9598 15.2151 14.6156 16.4251 15.7776ZM7.69659 15.7373L7.52604 15.8867V16.1134V17.1056V17.6056H8.02604H15.6823H16.1823V17.1056V16.1134V15.8867L16.0118 15.7373C14.8718 14.7387 13.389 14.1878 11.8542 14.1878C10.3193 14.1878 8.83661 14.7387 7.69659 15.7373ZM1.4168 23.6674L1.41603 1.33398L29.583 1.33399V23.6674H1.4168ZM18.917 8.625H23.7503V10.5417H18.917V8.625ZM20.3753 14.4583H23.7503V16.375H20.3753V14.4583ZM8.52604 16.6056V16.3466C9.45598 15.6007 10.6331 15.1878 11.8542 15.1878C13.0753 15.1878 14.2524 15.6007 15.1823 16.3466V16.6056H8.52604Z" fill="white" stroke="white"/>
</svg>
