<svg width="40" height="40" viewBox="0 0 40 40" fill="none" xmlns="http://www.w3.org/2000/svg">
<path d="M22.3577 20L20.0007 17.643L17.6437 20L20.0007 22.357L22.3577 20Z" fill="#222222"/>
<path d="M26.1291 11.9859C25.999 11.8558 25.7879 11.8558 25.6577 11.9859L20.0007 17.643L22.3577 20L28.0148 14.343C28.1449 14.2128 28.1449 14.0017 28.0148 13.8716L26.1291 11.9859Z" fill="#222222"/>
<path d="M14.3438 11.986C14.2136 11.8559 14.0025 11.8559 13.8724 11.986L11.9868 13.8717C11.8566 14.0018 11.8566 14.2129 11.9868 14.3431L17.6437 20L20.0007 17.643L14.3438 11.986Z" fill="#222222"/>
<path fill-rule="evenodd" clip-rule="evenodd" d="M0 20C0 8.9543 8.9543 0 20 0C31.0457 0 40 8.9543 40 20C40 31.0457 31.0457 40 20 40C8.9543 40 0 31.0457 0 20ZM25.6577 11.9859L20.0007 17.643L14.3438 11.986C14.2136 11.8559 14.0025 11.8559 13.8724 11.986L11.9868 13.8717C11.8566 14.0018 11.8566 14.2129 11.9868 14.3431L17.6437 20L11.987 25.6567C11.8568 25.7868 11.8568 25.9979 11.987 26.1281L13.8726 28.0137C14.0028 28.1439 14.2139 28.1439 14.344 28.0137L20.0007 22.357L25.6575 28.0138C25.7877 28.144 25.9987 28.144 26.1289 28.0138L28.0145 26.1282C28.1447 25.998 28.1447 25.7869 28.0145 25.6568L22.3577 20L28.0148 14.343C28.1449 14.2128 28.1449 14.0017 28.0148 13.8716L26.1291 11.9859C25.999 11.8558 25.7879 11.8558 25.6577 11.9859Z" />
<path d="M11.987 25.6567C11.8568 25.7868 11.8568 25.9979 11.987 26.1281L13.8726 28.0137C14.0028 28.1439 14.2139 28.1439 14.344 28.0137L20.0007 22.357L17.6437 20L11.987 25.6567Z" fill="#222222"/>
<path d="M28.0145 26.1282C28.1447 25.998 28.1447 25.7869 28.0145 25.6568L22.3577 20L20.0007 22.357L25.6575 28.0138C25.7877 28.144 25.9987 28.144 26.1289 28.0138L28.0145 26.1282Z" fill="#222222"/>
</svg>
