<svg width="95" height="96" viewBox="0 0 95 96" fill="none" xmlns="http://www.w3.org/2000/svg">
<path fill-rule="evenodd" clip-rule="evenodd" d="M50.1096 8.41057C48.6684 6.97808 46.3316 6.97808 44.8904 8.41057L10.624 42.4685C8.33855 44.74 7.16589 47.8908 7.41378 51.0937L10.0594 85.277C10.2073 87.1881 11.8106 88.6638 13.739 88.6638H36.4283V70.3233C36.4283 64.2458 41.3853 59.319 47.5 59.319C53.6147 59.319 58.5717 64.2458 58.5717 70.3233V88.6638H81.2609C83.1894 88.6638 84.7927 87.1881 84.9406 85.277L87.5862 51.0937C87.8341 47.8908 86.6614 44.74 84.376 42.4685L50.1096 8.41057ZM39.6712 3.22309C43.9949 -1.07436 51.0051 -1.07436 55.3288 3.22309L89.5952 37.281C93.4043 41.0669 95.3587 46.3181 94.9456 51.6564L92.3 85.8397C91.8563 91.5729 87.0463 96 81.2609 96H58.5717C54.4952 96 51.1905 92.7155 51.1905 88.6638V70.3233C51.1905 68.2975 49.5382 66.6552 47.5 66.6552C45.4618 66.6552 43.8094 68.2975 43.8094 70.3233V88.6638C43.8094 92.7155 40.5048 96 36.4283 96H13.739C7.9537 96 3.14371 91.5729 2.7 85.8397L0.0544177 51.6564C-0.358732 46.3181 1.59569 41.0669 5.40475 37.281L39.6712 3.22309Z" fill="#219653"/>
</svg>
