<svg width="18" height="20" viewBox="0 0 18 20" fill="none" xmlns="http://www.w3.org/2000/svg">
<path fill-rule="evenodd" clip-rule="evenodd" d="M2 6.17681L9 2.28792L16 6.17681V13.8232L9 17.7121L2 13.8232V6.17681ZM9 0L18 5V15L9 20L0 15V5L9 0ZM10 6.5C10 7.05228 9.55228 7.5 9 7.5C8.44772 7.5 8 7.05228 8 6.5C8 5.94772 8.44772 5.5 9 5.5C9.55228 5.5 10 5.94772 10 6.5ZM8.99997 14.5C9.55223 14.5 9.99993 14.0523 9.99994 13.5001L9.99994 9.99997C9.99995 9.44771 9.55225 9 8.99997 9C8.44771 9 8.00001 9.44769 8 9.99994L8 13.5C7.99999 14.0523 8.4477 14.5 8.99997 14.5Z" fill="#FFD60A"/>
</svg>
