<svg width="145" height="145" viewBox="0 0 145 145" fill="none" xmlns="http://www.w3.org/2000/svg">
<g filter="url(#filter0_d_756_302)">
<rect x="39" y="22" width="45" height="45" rx="15" fill="#FAFDFF"/>
</g>
<path d="M63.7295 55C63.5537 55.3031 63.3014 55.5547 62.9978 55.7295C62.6941 55.9044 62.3499 55.9965 61.9995 55.9965C61.6492 55.9965 61.3049 55.9044 61.0013 55.7295C60.6977 55.5547 60.4453 55.3031 60.2695 55M68 42C68 40.4087 67.3679 38.8826 66.2426 37.7574C65.1174 36.6321 63.5913 36 62 36C60.4087 36 58.8826 36.6321 57.7574 37.7574C56.6321 38.8826 56 40.4087 56 42C56 49 53 51 53 51H71C71 51 68 49 68 42Z" stroke="url(#paint0_linear_756_302)" stroke-width="2" stroke-linecap="round" stroke-linejoin="round"/>
<circle cx="68" cy="37" r="3.5" fill="#FF4545" stroke="white"/>
<defs>
<filter id="filter0_d_756_302" x="0" y="0" width="145" height="145" filterUnits="userSpaceOnUse" color-interpolation-filters="sRGB">
<feFlood flood-opacity="0" result="BackgroundImageFix"/>
<feColorMatrix in="SourceAlpha" type="matrix" values="0 0 0 0 0 0 0 0 0 0 0 0 0 0 0 0 0 0 127 0" result="hardAlpha"/>
<feOffset dx="11" dy="28"/>
<feGaussianBlur stdDeviation="25"/>
<feColorMatrix type="matrix" values="0 0 0 0 0.0784314 0 0 0 0 0.305882 0 0 0 0 0.352941 0 0 0 0.2 0"/>
<feBlend mode="normal" in2="BackgroundImageFix" result="effect1_dropShadow_756_302"/>
<feBlend mode="normal" in="SourceGraphic" in2="effect1_dropShadow_756_302" result="shape"/>
</filter>
<linearGradient id="paint0_linear_756_302" x1="53" y1="34.7721" x2="73.8721" y2="37.6831" gradientUnits="userSpaceOnUse">
<stop stop-color="#53E88B"/>
<stop offset="1" stop-color="#15BE77"/>
</linearGradient>
</defs>
</svg>
