<svg width="16" height="16" viewBox="0 0 16 16" fill="none" xmlns="http://www.w3.org/2000/svg">
<path d="M7.28137 8.83853V9.67705H9.4943V10.7649H7.28137V12H5.79848V10.7649H5V9.67705H5.79848V8.83853H5V7.72805H5.79848V4.10198C5.98859 4.09443 6.1749 4.0831 6.35741 4.06799C6.54753 4.05288 6.73764 4.04155 6.92776 4.03399C7.12548 4.02644 7.3308 4.01889 7.54373 4.01133C7.75665 4.00378 7.98479 4 8.22814 4C9.12548 4 9.80989 4.17753 10.2814 4.53258C10.7605 4.88763 11 5.49197 11 6.34561C11 7.2068 10.7681 7.83758 10.3042 8.23796C9.84791 8.63834 9.11407 8.83853 8.10266 8.83853H7.28137ZM8.10266 5.31445C7.95057 5.31445 7.80608 5.31822 7.6692 5.32578C7.53232 5.33333 7.40304 5.34466 7.28137 5.35977V7.72805H7.95437C8.5019 7.72805 8.88973 7.62606 9.11787 7.4221C9.34601 7.21813 9.46008 6.91218 9.46008 6.50425C9.46008 6.31539 9.44106 6.14542 9.40304 5.99433C9.36502 5.84325 9.29278 5.7186 9.18631 5.6204C9.08745 5.52219 8.95057 5.44665 8.77567 5.39377C8.60076 5.34089 8.37643 5.31445 8.10266 5.31445Z" fill="#7D85C1"/>
<rect x="0.5" y="0.5" width="15" height="15" rx="3.5" stroke="#7D85C1"/>
</svg>
