<svg width="33" height="24" viewBox="0 0 33 24" fill="none" xmlns="http://www.w3.org/2000/svg">
<path d="M6.90002 14.4C5.70002 14.4 5.70002 15.6 5.70002 16.8C5.70002 18 5.70002 19.2 6.90002 19.2H14.1C15.3 19.2 15.3 18 15.3 16.8C15.3 15.6 15.3 14.4 14.1 14.4H6.90002Z" fill="url(#paint0_linear_933_3320)"/>
<path fill-rule="evenodd" clip-rule="evenodd" d="M4.50002 0C2.5118 0 0.900024 1.61177 0.900024 3.6V20.4C0.900024 22.3882 2.5118 24 4.50002 24H28.5C30.4883 24 32.1 22.3882 32.1 20.4V3.6C32.1 1.61178 30.4883 0 28.5 0H4.50002ZM29.7 4.8V3.6C29.7 2.93726 29.1628 2.4 28.5 2.4H4.50002C3.83728 2.4 3.30002 2.93726 3.30002 3.6V4.8H29.7ZM3.30002 9.6V20.4C3.30002 21.0627 3.83728 21.6 4.50002 21.6H28.5C29.1628 21.6 29.7 21.0627 29.7 20.4V9.6H3.30002Z" fill="url(#paint1_linear_933_3320)"/>
<defs>
<linearGradient id="paint0_linear_933_3320" x1="0.900024" y1="-1.47368" x2="36.3442" y2="5.66533" gradientUnits="userSpaceOnUse">
<stop stop-color="#53E88B"/>
<stop offset="1" stop-color="#15BE77"/>
</linearGradient>
<linearGradient id="paint1_linear_933_3320" x1="0.900024" y1="-1.47368" x2="36.3442" y2="5.66533" gradientUnits="userSpaceOnUse">
<stop stop-color="#53E88B"/>
<stop offset="1" stop-color="#15BE77"/>
</linearGradient>
</defs>
</svg>
