<svg width="24" height="24" viewBox="0 0 24 24" fill="none" xmlns="http://www.w3.org/2000/svg">
<path fill-rule="evenodd" clip-rule="evenodd" d="M5 8.17681L12 4.28792L19 8.17681V15.8232L12 19.7121L5 15.8232V8.17681ZM12 2L21 7V17L12 22L3 17V7L12 2ZM13 8.5C13 9.05228 12.5523 9.5 12 9.5C11.4477 9.5 11 9.05228 11 8.5C11 7.94772 11.4477 7.5 12 7.5C12.5523 7.5 13 7.94772 13 8.5ZM12 16.5C12.5522 16.5 12.9999 16.0523 12.9999 15.5001L12.9999 12C13 11.4477 12.5522 11 12 11C11.4477 11 11 11.4477 11 11.9999L11 15.5C11 16.0523 11.4477 16.5 12 16.5Z" fill="#FF453A"/>
</svg>
