<svg width="49" height="48" viewBox="0 0 49 48" fill="none" xmlns="http://www.w3.org/2000/svg">
<rect x="0.5" width="48" height="48" rx="8" fill="white"/>
<path d="M30.531 28.617L34.814 32.899L33.399 34.314L29.117 30.031C27.5237 31.3082 25.542 32.0029 23.5 32C18.532 32 14.5 27.968 14.5 23C14.5 18.032 18.532 14 23.5 14C28.468 14 32.5 18.032 32.5 23C32.5029 25.042 31.8082 27.0237 30.531 28.617ZM28.525 27.875C29.7941 26.5699 30.5029 24.8204 30.5 23C30.5 19.132 27.367 16 23.5 16C19.632 16 16.5 19.132 16.5 23C16.5 26.867 19.632 30 23.5 30C25.3204 30.0029 27.0699 29.2941 28.375 28.025L28.525 27.875Z" fill="#333F48"/>
</svg>
