<svg width="89" height="96" viewBox="0 0 89 96" fill="none" xmlns="http://www.w3.org/2000/svg">
<path d="M48.2083 69.1659C50.4252 67.8891 51.9167 65.5026 51.9167 62.7692C51.9167 58.6908 48.5961 55.3846 44.5 55.3846C40.4039 55.3846 37.0833 58.6908 37.0833 62.7692C37.0833 65.5026 38.5748 67.8891 40.7917 69.1659V77.5385C40.7917 79.5777 42.4519 81.2308 44.5 81.2308C46.5481 81.2308 48.2083 79.5777 48.2083 77.5385V69.1659Z" fill="#219653"/>
<path fill-rule="evenodd" clip-rule="evenodd" d="M29.6667 23.574C29.6667 14.6328 36.9463 7.38462 45.9263 7.38462C53.3308 7.38462 59.3333 13.3612 59.3333 20.7337V22.1538C59.3333 24.1931 60.9936 25.8462 63.0417 25.8462C65.0897 25.8462 66.75 24.1931 66.75 22.1538V20.7337C66.75 9.28281 57.4269 0 45.9263 0C32.8502 0 22.25 10.5544 22.25 23.574V36.9231H14.8333C6.64111 36.9231 0 43.5355 0 51.6923V81.2308C0 89.3876 6.64111 96 14.8333 96H74.1667C82.3589 96 89 89.3876 89 81.2308V51.6923C89 43.5355 82.3589 36.9231 74.1667 36.9231H29.6667V23.574ZM7.41667 51.6923C7.41667 47.6139 10.7372 44.3077 14.8333 44.3077H74.1667C78.2628 44.3077 81.5833 47.6139 81.5833 51.6923V81.2308C81.5833 85.3092 78.2628 88.6154 74.1667 88.6154H14.8333C10.7372 88.6154 7.41667 85.3092 7.41667 81.2308V51.6923Z" fill="#219653"/>
</svg>
