<svg width="31" height="36" viewBox="0 0 31 36" fill="none" xmlns="http://www.w3.org/2000/svg">
<path fill-rule="evenodd" clip-rule="evenodd" d="M15.4 0.5C10.805 0.5 7.08005 4.11616 7.08005 8.57692C7.08005 13.0377 10.805 16.6538 15.4 16.6538C19.995 16.6538 23.7199 13.0377 23.7199 8.57692C23.7199 4.11616 19.995 0.5 15.4 0.5ZM9.85337 8.57692C9.85337 5.60308 12.3367 3.19231 15.4 3.19231C18.4633 3.19231 20.9466 5.60308 20.9466 8.57692C20.9466 11.5508 18.4633 13.9615 15.4 13.9615C12.3367 13.9615 9.85337 11.5508 9.85337 8.57692Z" fill="url(#paint0_linear_933_3316)"/>
<path fill-rule="evenodd" clip-rule="evenodd" d="M15.4 18C9.01641 18 5.06972 19.9277 2.75958 22.6885C0.494546 25.3953 0.00678537 28.6649 1.97865e-05 30.9866C-0.00810888 33.7761 2.48967 35.5 4.9891 35.5H25.8109C28.3103 35.5 30.8081 33.7761 30.8 30.9866C30.7932 28.6649 30.3055 25.3953 28.0404 22.6885C25.7303 19.9277 21.7836 18 15.4 18ZM2.77332 30.9942C2.77923 28.9665 3.21517 26.414 4.91215 24.386C6.56401 22.412 9.61765 20.6923 15.4 20.6923C21.1824 20.6923 24.236 22.412 25.8879 24.386C27.5848 26.414 28.0208 28.9665 28.0267 30.9942C28.0294 31.9437 27.1629 32.8077 25.8109 32.8077H4.9891C3.63709 32.8077 2.77056 31.9437 2.77332 30.9942Z" fill="url(#paint1_linear_933_3316)"/>
<defs>
<linearGradient id="paint0_linear_933_3316" x1="-4.3676e-08" y1="-1.64912" x2="35.7447" y2="3.22442" gradientUnits="userSpaceOnUse">
<stop stop-color="#53E88B"/>
<stop offset="1" stop-color="#15BE77"/>
</linearGradient>
<linearGradient id="paint1_linear_933_3316" x1="-4.3676e-08" y1="-1.64912" x2="35.7447" y2="3.22442" gradientUnits="userSpaceOnUse">
<stop stop-color="#53E88B"/>
<stop offset="1" stop-color="#15BE77"/>
</linearGradient>
</defs>
</svg>
