<svg width="44" height="50" viewBox="0 0 44 50" fill="none" xmlns="http://www.w3.org/2000/svg">
<path fill-rule="evenodd" clip-rule="evenodd" d="M22 0C15.4357 0 10.1144 5.16595 10.1144 11.5385C10.1144 17.911 15.4357 23.0769 22 23.0769C28.5643 23.0769 33.8856 17.911 33.8856 11.5385C33.8856 5.16595 28.5643 0 22 0ZM14.0762 11.5385C14.0762 7.29012 17.6238 3.84615 22 3.84615C26.3762 3.84615 29.9238 7.29012 29.9238 11.5385C29.9238 15.7868 26.3762 19.2308 22 19.2308C17.6238 19.2308 14.0762 15.7868 14.0762 11.5385Z" fill="url(#paint0_linear_763_334)"/>
<path fill-rule="evenodd" clip-rule="evenodd" d="M22 25C12.8806 25 7.24246 27.7539 3.94225 31.6978C0.706495 35.5647 0.00969339 40.2356 2.82665e-05 43.5523C-0.0115841 47.5372 3.55668 50 7.12728 50H36.8727C40.4433 50 44.0116 47.5372 44 43.5523C43.9903 40.2356 43.2935 35.5647 40.0578 31.6978C36.7576 27.7539 31.1194 25 22 25ZM3.96189 43.5632C3.97033 40.6664 4.59309 37.02 7.01735 34.1229C9.37716 31.3028 13.7395 28.8462 22 28.8462C30.2605 28.8462 34.6229 31.3028 36.9827 34.1229C39.4069 37.02 40.0297 40.6664 40.0381 43.5632C40.0421 44.9195 38.8042 46.1538 36.8727 46.1538H7.12728C5.19584 46.1538 3.95794 44.9195 3.96189 43.5632Z" fill="url(#paint1_linear_763_334)"/>
<defs>
<linearGradient id="paint0_linear_763_334" x1="-6.23943e-08" y1="-3.07017" x2="51.0639" y2="3.89203" gradientUnits="userSpaceOnUse">
<stop stop-color="#53E88B"/>
<stop offset="1" stop-color="#15BE77"/>
</linearGradient>
<linearGradient id="paint1_linear_763_334" x1="-6.23943e-08" y1="-3.07017" x2="51.0639" y2="3.89203" gradientUnits="userSpaceOnUse">
<stop stop-color="#53E88B"/>
<stop offset="1" stop-color="#15BE77"/>
</linearGradient>
</defs>
</svg>
