<svg width="31" height="36" viewBox="0 0 31 36" fill="none" xmlns="http://www.w3.org/2000/svg">
<path fill-rule="evenodd" clip-rule="evenodd" d="M15.5 0.5C10.905 0.5 7.18003 4.11616 7.18003 8.57692C7.18003 13.0377 10.905 16.6538 15.5 16.6538C20.095 16.6538 23.8199 13.0377 23.8199 8.57692C23.8199 4.11616 20.095 0.5 15.5 0.5ZM9.95334 8.57692C9.95334 5.60308 12.4367 3.19231 15.5 3.19231C18.5633 3.19231 21.0466 5.60308 21.0466 8.57692C21.0466 11.5508 18.5633 13.9615 15.5 13.9615C12.4367 13.9615 9.95334 11.5508 9.95334 8.57692Z" fill="url(#paint0_linear_933_3334)"/>
<path fill-rule="evenodd" clip-rule="evenodd" d="M15.5 18C9.11639 18 5.1697 19.9277 2.85955 22.6885C0.594522 25.3953 0.106761 28.6649 0.0999954 30.9866C0.0918667 33.7761 2.58965 35.5 5.08907 35.5H25.9109C28.4103 35.5 30.9081 33.7761 30.9 30.9866C30.8932 28.6649 30.4054 25.3953 28.1404 22.6885C25.8303 19.9277 21.8836 18 15.5 18ZM2.8733 30.9942C2.87921 28.9665 3.31514 26.414 5.01212 24.386C6.66399 22.412 9.71763 20.6923 15.5 20.6923C21.2823 20.6923 24.336 22.412 25.9878 24.386C27.6848 26.414 28.1207 28.9665 28.1267 30.9942C28.1294 31.9437 27.2629 32.8077 25.9109 32.8077H5.08907C3.73706 32.8077 2.87053 31.9437 2.8733 30.9942Z" fill="url(#paint1_linear_933_3334)"/>
<defs>
<linearGradient id="paint0_linear_933_3334" x1="0.0999755" y1="-1.64912" x2="35.8447" y2="3.22442" gradientUnits="userSpaceOnUse">
<stop stop-color="#53E88B"/>
<stop offset="1" stop-color="#15BE77"/>
</linearGradient>
<linearGradient id="paint1_linear_933_3334" x1="0.0999755" y1="-1.64912" x2="35.8447" y2="3.22442" gradientUnits="userSpaceOnUse">
<stop stop-color="#53E88B"/>
<stop offset="1" stop-color="#15BE77"/>
</linearGradient>
</defs>
</svg>
