<svg width="51" height="50" viewBox="0 0 51 50" fill="none" xmlns="http://www.w3.org/2000/svg">
<path d="M8.12644 20.7031C7.31745 20.7031 6.66159 20.0473 6.66159 19.2383V16.3086C6.66159 15.4996 7.31745 14.8437 8.12644 14.8437C8.93542 14.8437 9.59128 15.4996 9.59128 16.3086V19.2383C9.59128 20.0473 8.93542 20.7031 8.12644 20.7031Z" fill="#66334D"/>
<path d="M35.9585 16.3086V19.2383C35.9585 20.0469 35.3022 20.7031 34.4936 20.7031H16.9155C16.1069 20.7031 15.4507 20.0469 15.4507 19.2383V16.3086C15.4507 13.8857 17.4224 11.9141 19.8452 11.9141H31.564C33.9868 11.9141 35.9585 13.8857 35.9585 16.3086Z" fill="#66334D"/>
<path d="M35.9585 16.3086V19.2383C35.9585 20.0469 35.3022 20.7031 34.4936 20.7031L25.7045 20.7031V11.9141L31.564 11.9141C33.9868 11.9141 35.9585 13.8857 35.9585 16.3086Z" fill="#66334D"/>
<path d="M35.9585 16.3086V19.2383C35.9585 20.0469 35.3022 20.7031 34.4936 20.7031L25.7045 20.7031V11.9141L31.564 11.9141C33.9868 11.9141 35.9585 13.8857 35.9585 16.3086Z" fill="#4D2739"/>
<path d="M50.7046 22.168V33.8867L25.7046 36.2305L0.704593 33.8867V22.168C0.704593 19.7451 2.67627 17.7734 5.09912 17.7734H46.3101C48.7329 17.7734 50.7046 19.7451 50.7046 22.168Z" fill="#8C466A"/>
<path d="M50.7046 22.168V33.8867L25.7046 36.2305L25.7046 17.7734L46.3101 17.7734C48.7329 17.7734 50.7046 19.7451 50.7046 22.168Z" fill="#66334D"/>
<path d="M50.7046 33.8867L50.7046 45.6055C50.7046 48.0283 48.7329 50 46.3101 50H5.09912C2.67627 50 0.70459 48.0283 0.70459 45.6055L0.704593 33.8867H50.7046Z" fill="#4CAF50"/>
<path d="M50.7046 33.8867L50.7046 45.6055C50.7046 48.0283 48.7329 50 46.3101 50L25.7046 50V33.8867L50.7046 33.8867Z" fill="#388E3C"/>
<path d="M25.7046 23.6328C20.0503 23.6328 15.4507 28.2324 15.4507 33.8867C15.4507 39.5303 20.0415 44.1406 25.7046 44.1406C31.3706 44.1406 35.9585 39.5283 35.9585 33.8867C35.9585 28.2324 31.3589 23.6328 25.7046 23.6328Z" fill="#FFFEF2"/>
<path d="M35.9585 33.8867C35.9585 39.5283 31.3706 44.1406 25.7046 44.1406V23.6328C31.3589 23.6328 35.9585 28.2324 35.9585 33.8867Z" fill="#FFFEF2"/>
<path d="M25.7046 29.4922C23.2817 29.4922 21.31 31.4639 21.31 33.8867C21.31 36.3037 23.2758 38.2812 25.7046 38.2812C28.1313 38.2812 30.0991 36.3057 30.0991 33.8867C30.0991 31.4639 28.1274 29.4922 25.7046 29.4922Z" fill="#4CAF50"/>
<path d="M30.0991 33.8867C30.0991 36.3057 28.1313 38.2812 25.7046 38.2812V29.4922C28.1274 29.4922 30.0991 31.4639 30.0991 33.8867Z" fill="#388E3C"/>
<path d="M8.12646 26.5625C8.93547 26.5625 9.5913 25.9067 9.5913 25.0977C9.5913 24.2886 8.93547 23.6328 8.12646 23.6328C7.31744 23.6328 6.66161 24.2886 6.66161 25.0977C6.66161 25.9067 7.31744 26.5625 8.12646 26.5625Z" fill="#4CAF50"/>
<path d="M43.2827 26.5625H40.353C39.544 26.5625 38.8881 25.9066 38.8881 25.0977C38.8881 24.2887 39.544 23.6328 40.353 23.6328H43.2827C44.0917 23.6328 44.7475 24.2887 44.7475 25.0977C44.7475 25.9066 44.0917 26.5625 43.2827 26.5625Z" fill="#388E3C"/>
<path d="M27.1694 1.46484V4.39453C27.1694 5.20312 26.5132 5.85938 25.7046 5.85938C24.896 5.85938 24.2397 5.20312 24.2397 4.39453V1.46484C24.2397 0.65625 24.896 0 25.7046 0C26.5132 0 27.1694 0.65625 27.1694 1.46484Z" fill="#FFE580"/>
<path d="M27.1694 1.46484V4.39453C27.1694 5.20312 26.5132 5.85938 25.7046 5.85938V0C26.5132 0 27.1694 0.65625 27.1694 1.46484Z" fill="#FFCC66"/>
<path d="M29.4924 7.93095C28.9203 7.35888 28.9203 6.43144 29.4924 5.85937L31.5639 3.78779C32.1359 3.21572 33.0635 3.21572 33.6355 3.78779C34.2076 4.35986 34.2076 5.2873 33.6355 5.85937L31.5639 7.93095C30.992 8.50302 30.0644 8.50302 29.4924 7.93095Z" fill="#FFCC66"/>
<path d="M19.8452 7.93096L17.7736 5.85938C17.2017 5.28731 17.2017 4.35987 17.7736 3.7878C18.3456 3.21573 19.273 3.21573 19.8452 3.7878L21.9168 5.85938C22.4888 6.43145 22.4888 7.35889 21.9168 7.93096C21.3448 8.50293 20.4174 8.50313 19.8452 7.93096Z" fill="#FFE580"/>
</svg>
