<svg width="35" height="34" viewBox="0 0 35 34" fill="none" xmlns="http://www.w3.org/2000/svg">
<path d="M13.125 15.3594C14.3331 15.3594 15.3125 14.38 15.3125 13.1719C15.3125 11.9638 14.3331 10.9844 13.125 10.9844C11.9169 10.9844 10.9375 11.9638 10.9375 13.1719C10.9375 14.38 11.9169 15.3594 13.125 15.3594Z" fill="url(#paint0_linear_933_3328)"/>
<path d="M20.7812 21.9219C20.7812 24.3381 19.3122 26.2969 17.5 26.2969C15.6878 26.2969 14.2188 24.3381 14.2188 21.9219C14.2188 19.5056 15.6878 17.5469 17.5 17.5469C19.3122 17.5469 20.7812 19.5056 20.7812 21.9219Z" fill="url(#paint1_linear_933_3328)"/>
<path d="M21.875 15.3594C23.0831 15.3594 24.0625 14.38 24.0625 13.1719C24.0625 11.9638 23.0831 10.9844 21.875 10.9844C20.6669 10.9844 19.6875 11.9638 19.6875 13.1719C19.6875 14.38 20.6669 15.3594 21.875 15.3594Z" fill="url(#paint2_linear_933_3328)"/>
<path fill-rule="evenodd" clip-rule="evenodd" d="M17.5 3.32812C9.6472 3.32812 3.28125 9.69408 3.28125 17.5469C3.28125 25.3997 9.6472 31.7656 17.5 31.7656C25.3528 31.7656 31.7188 25.3997 31.7188 17.5469C31.7188 9.69408 25.3528 3.32812 17.5 3.32812ZM5.46875 17.5469C5.46875 10.9022 10.8553 5.51562 17.5 5.51562C24.1447 5.51562 29.5312 10.9022 29.5312 17.5469C29.5312 24.1916 24.1447 29.5781 17.5 29.5781C10.8553 29.5781 5.46875 24.1916 5.46875 17.5469Z" fill="url(#paint3_linear_933_3328)"/>
<path d="M2.1875 26.2969C2.1875 25.6928 1.69781 25.2031 1.09375 25.2031C0.489689 25.2031 0 25.6928 0 26.2969V29.5781C0 31.9944 1.95875 33.9531 4.375 33.9531H8.75C9.29688 33.9531 9.84375 33.4062 9.84375 32.8594C9.84375 32.3125 9.29688 31.7656 8.75 31.7656H4.375C3.16688 31.7656 2.1875 30.7862 2.1875 29.5781V26.2969Z" fill="url(#paint4_linear_933_3328)"/>
<path d="M32.8125 26.2969C32.8125 25.6928 33.3022 25.2031 33.9062 25.2031C34.5103 25.2031 35 25.6928 35 26.2969V29.5781C35 31.9944 33.0412 33.9531 30.625 33.9531H26.25C25.7031 33.9531 25.1562 33.4062 25.1562 32.8594C25.1562 32.3125 25.7031 31.7656 26.25 31.7656H30.625C31.8331 31.7656 32.8125 30.7862 32.8125 29.5781V26.2969Z" fill="url(#paint5_linear_933_3328)"/>
<path d="M32.8125 7.70312C32.8125 8.30719 33.3022 8.79688 33.9062 8.79688C34.5103 8.79688 35 8.30719 35 7.70312V4.42188C35 2.00563 33.0412 0.046875 30.625 0.046875H26.25C25.7031 0.046875 25.1562 0.59375 25.1562 1.14062C25.1562 1.6875 25.7031 2.23438 26.25 2.23438H30.625C31.8331 2.23438 32.8125 3.21375 32.8125 4.42188V7.70312Z" fill="url(#paint6_linear_933_3328)"/>
<path d="M2.1875 7.70312C2.1875 8.30719 1.69781 8.79688 1.09375 8.79688C0.489689 8.79688 0 8.30719 0 7.70312V4.42188C0 2.00563 1.95875 0.046875 4.375 0.046875H8.75C9.29688 0.046875 9.84375 0.59375 9.84375 1.14062C9.84375 1.6875 9.29688 2.23438 8.75 2.23438H4.375C3.16688 2.23438 2.1875 3.21375 2.1875 4.42188V7.70312Z" fill="url(#paint7_linear_933_3328)"/>
<defs>
<linearGradient id="paint0_linear_933_3328" x1="-4.96319e-08" y1="-2.03509" x2="40.3422" y2="4.41697" gradientUnits="userSpaceOnUse">
<stop stop-color="#53E88B"/>
<stop offset="1" stop-color="#15BE77"/>
</linearGradient>
<linearGradient id="paint1_linear_933_3328" x1="-4.96319e-08" y1="-2.03509" x2="40.3422" y2="4.41697" gradientUnits="userSpaceOnUse">
<stop stop-color="#53E88B"/>
<stop offset="1" stop-color="#15BE77"/>
</linearGradient>
<linearGradient id="paint2_linear_933_3328" x1="-4.96319e-08" y1="-2.03509" x2="40.3422" y2="4.41697" gradientUnits="userSpaceOnUse">
<stop stop-color="#53E88B"/>
<stop offset="1" stop-color="#15BE77"/>
</linearGradient>
<linearGradient id="paint3_linear_933_3328" x1="-4.96319e-08" y1="-2.03509" x2="40.3422" y2="4.41697" gradientUnits="userSpaceOnUse">
<stop stop-color="#53E88B"/>
<stop offset="1" stop-color="#15BE77"/>
</linearGradient>
<linearGradient id="paint4_linear_933_3328" x1="-4.96319e-08" y1="-2.03509" x2="40.3422" y2="4.41697" gradientUnits="userSpaceOnUse">
<stop stop-color="#53E88B"/>
<stop offset="1" stop-color="#15BE77"/>
</linearGradient>
<linearGradient id="paint5_linear_933_3328" x1="-4.96319e-08" y1="-2.03509" x2="40.3422" y2="4.41697" gradientUnits="userSpaceOnUse">
<stop stop-color="#53E88B"/>
<stop offset="1" stop-color="#15BE77"/>
</linearGradient>
<linearGradient id="paint6_linear_933_3328" x1="-4.96319e-08" y1="-2.03509" x2="40.3422" y2="4.41697" gradientUnits="userSpaceOnUse">
<stop stop-color="#53E88B"/>
<stop offset="1" stop-color="#15BE77"/>
</linearGradient>
<linearGradient id="paint7_linear_933_3328" x1="-4.96319e-08" y1="-2.03509" x2="40.3422" y2="4.41697" gradientUnits="userSpaceOnUse">
<stop stop-color="#53E88B"/>
<stop offset="1" stop-color="#15BE77"/>
</linearGradient>
</defs>
</svg>
