<svg width="46" height="44" viewBox="0 0 46 44" fill="none" xmlns="http://www.w3.org/2000/svg">
<path d="M17.375 19.8906C18.9283 19.8906 20.1875 18.6314 20.1875 17.0781C20.1875 15.5248 18.9283 14.2656 17.375 14.2656C15.8217 14.2656 14.5625 15.5248 14.5625 17.0781C14.5625 18.6314 15.8217 19.8906 17.375 19.8906Z" fill="url(#paint0_linear_794_37337)"/>
<path d="M27.2188 28.3281C27.2188 31.4347 25.33 33.9531 23 33.9531C20.67 33.9531 18.7812 31.4347 18.7812 28.3281C18.7812 25.2215 20.67 22.7031 23 22.7031C25.33 22.7031 27.2188 25.2215 27.2188 28.3281Z" fill="url(#paint1_linear_794_37337)"/>
<path d="M28.625 19.8906C30.1783 19.8906 31.4375 18.6314 31.4375 17.0781C31.4375 15.5248 30.1783 14.2656 28.625 14.2656C27.0717 14.2656 25.8125 15.5248 25.8125 17.0781C25.8125 18.6314 27.0717 19.8906 28.625 19.8906Z" fill="url(#paint2_linear_794_37337)"/>
<path fill-rule="evenodd" clip-rule="evenodd" d="M23 4.42188C12.9035 4.42188 4.71875 12.6067 4.71875 22.7031C4.71875 32.7996 12.9035 40.9844 23 40.9844C33.0965 40.9844 41.2812 32.7996 41.2812 22.7031C41.2812 12.6067 33.0965 4.42188 23 4.42188ZM7.53125 22.7031C7.53125 14.16 14.4568 7.23438 23 7.23438C31.5432 7.23438 38.4688 14.16 38.4688 22.7031C38.4688 31.2463 31.5432 38.1719 23 38.1719C14.4568 38.1719 7.53125 31.2463 7.53125 22.7031Z" fill="url(#paint3_linear_794_37337)"/>
<path d="M3.3125 33.9531C3.3125 33.1765 2.6829 32.5469 1.90625 32.5469C1.1296 32.5469 0.5 33.1765 0.5 33.9531V38.1719C0.5 41.2785 3.0184 43.7969 6.125 43.7969H11.75C12.4531 43.7969 13.1562 43.0938 13.1562 42.3906C13.1562 41.6875 12.4531 40.9844 11.75 40.9844H6.125C4.5717 40.9844 3.3125 39.7252 3.3125 38.1719V33.9531Z" fill="url(#paint4_linear_794_37337)"/>
<path d="M42.6875 33.9531C42.6875 33.1765 43.3171 32.5469 44.0938 32.5469C44.8704 32.5469 45.5 33.1765 45.5 33.9531V38.1719C45.5 41.2785 42.9816 43.7969 39.875 43.7969H34.25C33.5469 43.7969 32.8438 43.0938 32.8438 42.3906C32.8438 41.6875 33.5469 40.9844 34.25 40.9844H39.875C41.4283 40.9844 42.6875 39.7252 42.6875 38.1719V33.9531Z" fill="url(#paint5_linear_794_37337)"/>
<path d="M42.6875 10.0469C42.6875 10.8235 43.3171 11.4531 44.0938 11.4531C44.8704 11.4531 45.5 10.8235 45.5 10.0469V5.82812C45.5 2.72152 42.9816 0.203125 39.875 0.203125H34.25C33.5469 0.203125 32.8438 0.90625 32.8438 1.60938C32.8438 2.3125 33.5469 3.01562 34.25 3.01562H39.875C41.4283 3.01562 42.6875 4.27483 42.6875 5.82812V10.0469Z" fill="url(#paint6_linear_794_37337)"/>
<path d="M3.3125 10.0469C3.3125 10.8235 2.6829 11.4531 1.90625 11.4531C1.1296 11.4531 0.5 10.8235 0.5 10.0469V5.82812C0.5 2.72152 3.0184 0.203125 6.125 0.203125H11.75C12.4531 0.203125 13.1562 0.90625 13.1562 1.60938C13.1562 2.3125 12.4531 3.01562 11.75 3.01562H6.125C4.5717 3.01562 3.3125 4.27483 3.3125 5.82812V10.0469Z" fill="url(#paint7_linear_794_37337)"/>
<defs>
<linearGradient id="paint0_linear_794_37337" x1="0.5" y1="-2.47368" x2="52.3685" y2="5.82182" gradientUnits="userSpaceOnUse">
<stop stop-color="#53E88B"/>
<stop offset="1" stop-color="#15BE77"/>
</linearGradient>
<linearGradient id="paint1_linear_794_37337" x1="0.5" y1="-2.47368" x2="52.3685" y2="5.82182" gradientUnits="userSpaceOnUse">
<stop stop-color="#53E88B"/>
<stop offset="1" stop-color="#15BE77"/>
</linearGradient>
<linearGradient id="paint2_linear_794_37337" x1="0.5" y1="-2.47368" x2="52.3685" y2="5.82182" gradientUnits="userSpaceOnUse">
<stop stop-color="#53E88B"/>
<stop offset="1" stop-color="#15BE77"/>
</linearGradient>
<linearGradient id="paint3_linear_794_37337" x1="0.5" y1="-2.47368" x2="52.3685" y2="5.82182" gradientUnits="userSpaceOnUse">
<stop stop-color="#53E88B"/>
<stop offset="1" stop-color="#15BE77"/>
</linearGradient>
<linearGradient id="paint4_linear_794_37337" x1="0.5" y1="-2.47368" x2="52.3685" y2="5.82182" gradientUnits="userSpaceOnUse">
<stop stop-color="#53E88B"/>
<stop offset="1" stop-color="#15BE77"/>
</linearGradient>
<linearGradient id="paint5_linear_794_37337" x1="0.5" y1="-2.47368" x2="52.3685" y2="5.82182" gradientUnits="userSpaceOnUse">
<stop stop-color="#53E88B"/>
<stop offset="1" stop-color="#15BE77"/>
</linearGradient>
<linearGradient id="paint6_linear_794_37337" x1="0.5" y1="-2.47368" x2="52.3685" y2="5.82182" gradientUnits="userSpaceOnUse">
<stop stop-color="#53E88B"/>
<stop offset="1" stop-color="#15BE77"/>
</linearGradient>
<linearGradient id="paint7_linear_794_37337" x1="0.5" y1="-2.47368" x2="52.3685" y2="5.82182" gradientUnits="userSpaceOnUse">
<stop stop-color="#53E88B"/>
<stop offset="1" stop-color="#15BE77"/>
</linearGradient>
</defs>
</svg>
