<svg width="51" height="50" viewBox="0 0 51 50" fill="none" xmlns="http://www.w3.org/2000/svg">
<path d="M22.6002 44.7881C17.7193 44.7881 13.7467 40.8154 13.7467 35.9345V6.28915L3.68319 8.59303C1.19583 9.2472 -0.29559 11.8116 0.36239 14.3219L8.9909 46.5377C9.56382 48.6211 11.4783 50 13.5323 50C13.9176 50 14.3093 49.952 14.6968 49.8501L35.695 44.7881H22.6002Z" fill="#B0BEC5"/>
<path d="M50.2022 5.72882V35.9345C50.2022 39.1008 47.6397 41.6633 44.4734 41.6633H22.6002C20.4546 41.6633 18.5799 40.4759 17.6007 38.7259C17.1422 37.9134 16.8714 36.9552 16.8714 35.9345V5.72882C16.8714 2.56212 19.4339 0 22.6002 0H44.4734C47.6397 0 50.2022 2.56212 50.2022 5.72882Z" fill="#ECEFF1"/>
<path d="M31.4538 14.582C31.4538 16.8832 29.5886 18.7485 27.2874 18.7485C24.9865 18.7485 23.1209 16.8832 23.1209 14.582C23.1209 12.2812 24.9865 10.4159 27.2874 10.4159C29.5886 10.4159 31.4538 12.2812 31.4538 14.582Z" fill="#FFC107"/>
<path d="M50.2022 24.8728L50.2022 35.9345C50.2022 39.1008 47.6397 41.6633 44.4734 41.6633H22.6002C20.4546 41.6633 18.5799 40.4759 17.6007 38.7259L38.2449 18.0817C39.6612 16.6654 41.9944 16.6654 43.4111 18.0817L50.2022 24.8728Z" fill="#388E3C"/>
<path d="M44.0775 41.6633L22.6002 41.6633C20.4546 41.6633 18.5799 40.4759 17.6007 38.7259C17.1422 37.9134 16.8714 36.9552 16.8714 35.9345V31.1223L22.6212 25.3729C24.0375 23.9562 26.3707 23.9562 27.7874 25.3729L44.0775 41.6633Z" fill="#4CAF50"/>
</svg>
