<svg width="85" height="46" viewBox="0 0 85 46" fill="none" xmlns="http://www.w3.org/2000/svg">
<path d="M13.0769 16.4286C13.0769 14.6139 14.5406 13.1429 16.3462 13.1429H32.6923C34.4979 13.1429 35.9615 14.6139 35.9615 16.4286C35.9615 18.2432 34.4979 19.7143 32.6923 19.7143H16.3462C14.5406 19.7143 13.0769 18.2432 13.0769 16.4286Z" fill="url(#paint0_linear_840_530)"/>
<path d="M45.7692 19.7143C47.5748 19.7143 49.0385 18.2432 49.0385 16.4286C49.0385 14.6139 47.5748 13.1429 45.7692 13.1429C43.9637 13.1429 42.5 14.6139 42.5 16.4286C42.5 18.2432 43.9637 19.7143 45.7692 19.7143Z" fill="url(#paint1_linear_840_530)"/>
<path fill-rule="evenodd" clip-rule="evenodd" d="M9.80769 0C4.39105 0 0 4.4132 0 9.85714V36.1429C0 41.5868 4.39105 46 9.80769 46H52.3077C57.1687 46 61.2038 42.4458 61.9804 37.7819L75.8859 43.7715C80.2004 45.6299 85 42.4491 85 37.7314V8.26863C85 3.55089 80.2004 0.370135 75.8859 2.22854L61.9804 8.21809C61.2038 3.55426 57.1687 0 52.3077 0H9.80769ZM62.1154 15.3095V30.6906L78.4615 37.7314L78.4615 8.26863L62.1154 15.3095ZM55.5769 9.85714C55.5769 8.04249 54.1132 6.57143 52.3077 6.57143H9.80769C8.00215 6.57143 6.53846 8.04249 6.53846 9.85714V36.1429C6.53846 37.9575 8.00215 39.4286 9.80769 39.4286H52.3077C54.1132 39.4286 55.5769 37.9575 55.5769 36.1429V9.85714Z" fill="url(#paint2_linear_840_530)"/>
<defs>
<linearGradient id="paint0_linear_840_530" x1="-1.20534e-07" y1="-2.82456" x2="92.8681" y2="23.763" gradientUnits="userSpaceOnUse">
<stop stop-color="#53E88B"/>
<stop offset="1" stop-color="#15BE77"/>
</linearGradient>
<linearGradient id="paint1_linear_840_530" x1="-1.20534e-07" y1="-2.82456" x2="92.8681" y2="23.763" gradientUnits="userSpaceOnUse">
<stop stop-color="#53E88B"/>
<stop offset="1" stop-color="#15BE77"/>
</linearGradient>
<linearGradient id="paint2_linear_840_530" x1="-1.20534e-07" y1="-2.82456" x2="92.8681" y2="23.763" gradientUnits="userSpaceOnUse">
<stop stop-color="#53E88B"/>
<stop offset="1" stop-color="#15BE77"/>
</linearGradient>
</defs>
</svg>
