<svg width="56" height="56" viewBox="0 0 56 56" fill="none" xmlns="http://www.w3.org/2000/svg">
<rect width="56" height="56" rx="8" fill="#333F48"/>
<path fill-rule="evenodd" clip-rule="evenodd" d="M18.499 35.5H35.999V20.5H33.999H31.749H22.749H20.499H18.499V35.5ZM18.499 18H15.999V20.5V35.5V38H18.499H35.999H38.499V35.5V20.5V18H35.999H33.999H31.749H22.749H20.499H18.499ZM42.249 24.25C41.5587 24.25 40.9991 24.8096 40.9991 25.5V30.5C40.9991 31.1903 41.5587 31.7499 42.249 31.7499C42.9394 31.7499 43.499 31.1903 43.499 30.5V25.5C43.499 24.8097 42.9394 24.25 42.249 24.25ZM23.499 28C24.8797 28 25.999 26.8807 25.999 25.5C25.999 24.1193 24.8797 23 23.499 23C22.1183 23 20.999 24.1193 20.999 25.5C20.999 26.8807 22.1183 28 23.499 28Z" fill="white"/>
</svg>
