<svg width="121.64px" height="65.83px" viewBox="0 0 123 66" fill="none" xmlns="http://www.w3.org/2000/svg">
<path d="M19.3934 23.5958C19.3934 20.9989 21.488 18.8937 24.0719 18.8937H47.4644C50.0483 18.8937 52.1429 20.9989 52.1429 23.5958C52.1429 26.1927 50.0483 28.2979 47.4644 28.2979H24.0719C21.488 28.2979 19.3934 26.1927 19.3934 23.5958Z" fill="#219653"/>
<path d="M66.1785 28.2979C68.7624 28.2979 70.857 26.1927 70.857 23.5958C70.857 20.9989 68.7624 18.8937 66.1785 18.8937C63.5946 18.8937 61.5 20.9989 61.5 23.5958C61.5 26.1927 63.5946 28.2979 66.1785 28.2979Z" fill="#219653"/>
<path fill-rule="evenodd" clip-rule="evenodd" d="M14.7149 0.0853271C6.96324 0.0853271 0.679321 6.40094 0.679321 14.1916V51.8084C0.679321 59.5991 6.96324 65.9147 14.7149 65.9147H75.5355C82.492 65.9147 88.2664 60.8283 89.3779 54.1541L109.278 62.7255C115.452 65.385 122.321 60.8331 122.321 54.0817V11.9184C122.321 5.16692 115.452 0.615018 109.278 3.27453L89.3779 11.846C88.2665 5.17174 82.492 0.0853271 75.5355 0.0853271H14.7149ZM89.571 21.9943V44.0058L112.964 54.0817L112.964 11.9184L89.571 21.9943ZM80.214 14.1916C80.214 11.5947 78.1194 9.48953 75.5355 9.48953H14.7149C12.131 9.48953 10.0363 11.5947 10.0363 14.1916V51.8084C10.0363 54.4053 12.131 56.5105 14.7149 56.5105H75.5355C78.1194 56.5105 80.214 54.4053 80.214 51.8084V14.1916Z" fill="#219653"/>
</svg>
